<svg width="16" height="19" viewBox="0 0 16 19" fill="none" xmlns="http://www.w3.org/2000/svg">
<g clip-path="url(#clip0_109_25)">
<path d="M14.6786 5.79778C14.6393 5.44852 14.2857 5.1691 13.8929 5.1691H11.9286V4.12131C11.9286 2.20035 10.1607 0.628662 8.00002 0.628662C5.83931 0.628662 4.07145 2.20035 4.07145 4.12131V5.1691H2.10716C1.71431 5.1691 1.36073 5.44852 1.32145 5.79778L0.221449 17.2886C0.182163 17.7776 0.378592 18.2316 0.732163 18.5809C1.08573 18.9301 1.59645 19.1397 2.14645 19.1397H13.8143C14.3643 19.1397 14.875 18.9301 15.2286 18.5809C15.5822 18.2316 15.7786 17.7426 15.7393 17.2886L14.6786 5.79778ZM5.64288 4.12131C5.64288 2.96874 6.70359 2.02572 8.00002 2.02572C9.29645 2.02572 10.3572 2.96874 10.3572 4.12131V5.1691H5.64288V4.12131Z" fill="white"/>
<path d="M13.7143 6.70591C13.675 6.35665 13.3214 6.07723 12.9285 6.07723H11.4286V4.12135C11.4286 2.79415 10.1607 1.11768 8 1.11768C6.28572 1.11768 4.57143 2.23532 4.57141 4.12135V6.07723L3.02842 6.14709C2.63557 6.14709 2.28199 6.4265 2.24271 6.77576L1.50355 16.2764C1.46427 16.7654 1.6607 17.2194 2.01427 17.5687C2.36784 17.918 2.87855 18.1275 3.42855 18.1275H12.5714C13.1214 18.1275 13.6322 17.918 13.9857 17.5687C14.3393 17.2194 14.5357 16.7305 14.4964 16.2764L13.7143 6.70591ZM5.14286 3.91179C5.14286 2.75922 6.28574 1.6765 8 1.6765C9.71427 1.6765 10.8571 2.79415 10.8571 4.12135V6.07723H5.14286V3.91179Z" fill="black"/>
</g>
<defs>
<clipPath id="clip0_109_25">
<rect width="16" height="19" fill="white"/>
</clipPath>
</defs>
</svg>
